<?xml version="1.0" encoding="UTF-8" standalone="no"?>
<!DOCTYPE svg PUBLIC "-//W3C//DTD SVG 1.1//EN"
 "http://www.w3.org/Graphics/SVG/1.1/DTD/svg11.dtd">
<!-- Generated by graphviz version 2.38.0 (20140413.2041)
 -->
<!-- Title: G Pages: 1 -->
<svg width="1045pt" height="124pt"
 viewBox="0.00 0.00 1045.10 123.98" xmlns="http://www.w3.org/2000/svg" xmlns:xlink="http://www.w3.org/1999/xlink">
<g id="graph0" class="graph" transform="scale(1 1) rotate(0) translate(7.992 115.992)">
<title>G</title>
<polygon fill="#000000" stroke="none" points="-7.992,7.992 -7.992,-115.992 1037.11,-115.992 1037.11,7.992 -7.992,7.992"/>
<!-- index.js -->
<g id="node1" class="node"><title>index.js</title>
<ellipse fill="none" stroke="#c6c5fe" cx="516.035" cy="-90" rx="42.4939" ry="18"/>
<text text-anchor="middle" x="516.035" y="-86.3" font-family="Arial" font-size="14.00" fill="#c6c5fe">index.js</text>
</g>
<!-- ../node_modules/fun&#45;curry/src/index.js -->
<g id="node2" class="node"><title>../node_modules/fun&#45;curry/src/index.js</title>
<ellipse fill="none" stroke="#cfffac" cx="167.035" cy="-18" rx="167.07" ry="18"/>
<text text-anchor="middle" x="167.035" y="-14.3" font-family="Arial" font-size="14.00" fill="#cfffac">../node_modules/fun&#45;curry/src/index.js</text>
</g>
<!-- index.js&#45;&gt;../node_modules/fun&#45;curry/src/index.js -->
<g id="edge1" class="edge"><title>index.js&#45;&gt;../node_modules/fun&#45;curry/src/index.js</title>
<path fill="none" stroke="#757575" d="M478.686,-81.5088C425.028,-70.7463 324.629,-50.6091 252.263,-36.0945"/>
<polygon fill="#757575" stroke="#757575" points="252.739,-32.6203 242.246,-34.0853 251.363,-39.4836 252.739,-32.6203"/>
</g>
<!-- ../node_modules/fun&#45;type/src/index.js -->
<g id="node3" class="node"><title>../node_modules/fun&#45;type/src/index.js</title>
<ellipse fill="none" stroke="#cfffac" cx="516.035" cy="-18" rx="164.371" ry="18"/>
<text text-anchor="middle" x="516.035" y="-14.3" font-family="Arial" font-size="14.00" fill="#cfffac">../node_modules/fun&#45;type/src/index.js</text>
</g>
<!-- index.js&#45;&gt;../node_modules/fun&#45;type/src/index.js -->
<g id="edge2" class="edge"><title>index.js&#45;&gt;../node_modules/fun&#45;type/src/index.js</title>
<path fill="none" stroke="#757575" d="M516.035,-71.6966C516.035,-63.9827 516.035,-54.7125 516.035,-46.1124"/>
<polygon fill="#757575" stroke="#757575" points="519.535,-46.1043 516.035,-36.1043 512.535,-46.1044 519.535,-46.1043"/>
</g>
<!-- ../node_modules/guarded/src/index.js -->
<g id="node4" class="node"><title>../node_modules/guarded/src/index.js</title>
<ellipse fill="none" stroke="#cfffac" cx="864.035" cy="-18" rx="165.171" ry="18"/>
<text text-anchor="middle" x="864.035" y="-14.3" font-family="Arial" font-size="14.00" fill="#cfffac">../node_modules/guarded/src/index.js</text>
</g>
<!-- index.js&#45;&gt;../node_modules/guarded/src/index.js -->
<g id="edge3" class="edge"><title>index.js&#45;&gt;../node_modules/guarded/src/index.js</title>
<path fill="none" stroke="#757575" d="M553.608,-81.4423C607.238,-70.6545 707.208,-50.5458 779.231,-36.0583"/>
<polygon fill="#757575" stroke="#757575" points="780.087,-39.4563 789.201,-34.0529 778.707,-32.5937 780.087,-39.4563"/>
</g>
</g>
</svg>
